<svg width="32" height="33" viewBox="0 0 32 33" fill="none" xmlns="http://www.w3.org/2000/svg">
<path d="M21.9464 21.7292C22.4129 21.9584 22.8335 22.2397 23.2081 22.573C23.5828 22.9063 23.9009 23.2778 24.1624 23.6875C24.4239 24.0973 24.6289 24.5417 24.7773 25.0209C24.9258 25.5 25 25.9931 25 26.5H23.6429C23.6429 25.9514 23.5368 25.434 23.3248 24.9479C23.1127 24.4618 22.8229 24.0382 22.4554 23.6771C22.0878 23.316 21.6531 23.0278 21.1512 22.8126C20.6494 22.5973 20.1228 22.4931 19.5714 22.5001C19.006 22.5001 18.4794 22.6042 17.9916 22.8126C17.5039 23.0209 17.0727 23.3056 16.6981 23.6667C16.3235 24.0278 16.0301 24.4549 15.8181 24.9479C15.606 25.441 15.5 25.9583 15.5 26.5H14.1429C14.1429 25.9931 14.2135 25.5 14.3549 25.0209C14.4963 24.5417 14.7013 24.0973 14.9699 23.6875C15.2385 23.2778 15.5601 22.9063 15.9347 22.573C16.3093 22.2397 16.7299 21.9584 17.1964 21.7292C16.6663 21.3543 16.2528 20.8855 15.9559 20.323C15.659 19.7605 15.5071 19.1529 15.5 18.5001C15.5 17.9515 15.394 17.4342 15.1819 16.9481C14.9699 16.462 14.6801 16.0384 14.3125 15.6773C13.9449 15.3162 13.5102 15.028 13.0084 14.8127C12.5065 14.5974 11.9799 14.4933 11.4286 14.5002C10.8631 14.5002 10.3365 14.6044 9.84877 14.8127C9.36105 15.021 8.92987 15.3057 8.55525 15.6668C8.18062 16.0279 7.88728 16.455 7.67522 16.9481C7.46317 17.4411 7.35714 17.9585 7.35714 18.5001H6C6 17.9932 6.07068 17.5001 6.21205 17.021C6.35342 16.5418 6.55841 16.0974 6.82701 15.6877C7.09561 15.278 7.41722 14.9064 7.79185 14.5731C8.16648 14.2398 8.58705 13.9585 9.05357 13.7294C8.52344 13.3544 8.10993 12.8856 7.81306 12.3231C7.51618 11.7607 7.36421 11.153 7.35714 10.5003C7.35714 9.95166 7.46317 9.43431 7.67522 8.9482C7.88728 8.4621 8.17708 8.03849 8.54464 7.67739C8.9122 7.31628 9.34338 7.02809 9.83817 6.81282C10.333 6.59755 10.8631 6.49338 11.4286 6.50033C11.987 6.50033 12.5136 6.60449 13.0084 6.81282C13.5032 7.02115 13.9343 7.30587 14.3019 7.66697C14.6695 8.02808 14.9628 8.45515 15.1819 8.9482C15.401 9.44125 15.5071 9.9586 15.5 10.5003C15.5 11.153 15.3516 11.7607 15.0547 12.3231C14.7578 12.8856 14.3408 13.3544 13.8036 13.7294C14.3408 13.9933 14.8214 14.3335 15.2455 14.7502C15.6696 15.1669 16.016 15.6391 16.2846 16.1668C16.6663 15.646 17.1434 15.2398 17.716 14.9481C18.2885 14.6564 18.907 14.5071 19.5714 14.5002C20.1298 14.5002 20.6564 14.6044 21.1512 14.8127C21.646 15.021 22.0772 15.3057 22.4448 15.6668C22.8123 16.0279 23.1057 16.455 23.3248 16.9481C23.5439 17.4411 23.6499 17.9585 23.6429 18.5001C23.6429 19.1529 23.4944 19.7605 23.1975 20.323C22.9007 20.8855 22.4836 21.3543 21.9464 21.7292ZM11.4286 13.1669C11.8032 13.1669 12.1531 13.0974 12.4782 12.9586C12.8034 12.8197 13.0932 12.6287 13.3477 12.3856C13.6021 12.1426 13.7965 11.8613 13.9308 11.5419C14.0651 11.2225 14.1358 10.8753 14.1429 10.5003C14.1429 10.1322 14.0722 9.78847 13.9308 9.46903C13.7894 9.14959 13.5951 8.86487 13.3477 8.61487C13.1003 8.36488 12.814 8.17391 12.4888 8.04197C12.1637 7.91002 11.8103 7.84058 11.4286 7.83364C11.0539 7.83364 10.7041 7.90308 10.3789 8.04197C10.0538 8.18085 9.76395 8.37182 9.50949 8.61487C9.25502 8.85793 9.06064 9.13917 8.92634 9.45861C8.79204 9.77805 8.72135 10.1253 8.71429 10.5003C8.71429 10.8683 8.78497 11.2121 8.92634 11.5315C9.06771 11.8509 9.26209 12.1357 9.50949 12.3856C9.75688 12.6356 10.0432 12.8266 10.3683 12.9586C10.6935 13.0905 11.0469 13.1599 11.4286 13.1669ZM19.5714 21.1668C19.9461 21.1668 20.2959 21.0973 20.6211 20.9584C20.9462 20.8195 21.236 20.6286 21.4905 20.3855C21.745 20.1425 21.9394 19.8612 22.0737 19.5418C22.208 19.2223 22.2786 18.8751 22.2857 18.5001C22.2857 18.1321 22.215 17.7883 22.0737 17.4689C21.9323 17.1495 21.7379 16.8647 21.4905 16.6147C21.2431 16.3647 20.9568 16.1738 20.6317 16.0418C20.3065 15.9099 19.9531 15.8405 19.5714 15.8335C19.1968 15.8335 18.8469 15.903 18.5218 16.0418C18.1966 16.1807 17.9068 16.3717 17.6523 16.6147C17.3979 16.8578 17.2035 17.139 17.0692 17.4585C16.9349 17.7779 16.8642 18.1251 16.8571 18.5001C16.8571 18.8682 16.9278 19.2119 17.0692 19.5314C17.2106 19.8508 17.4049 20.1355 17.6523 20.3855C17.8997 20.6355 18.186 20.8265 18.5112 20.9584C18.8363 21.0904 19.1897 21.1598 19.5714 21.1668ZM20.9286 9.16695H16.8571V7.83364H22.2857V13.1669H20.9286V9.16695Z" fill="#111111"/>
</svg>
