<svg width="54" height="54" viewBox="0 0 54 54" fill="none" xmlns="http://www.w3.org/2000/svg">
<circle cx="27" cy="27" r="27" fill="#D9D9D9"/>
<path d="M33.9464 26.0182C33.6641 25.65 33.3204 25.3309 33.0014 25.0118C32.1791 24.2754 31.2464 23.7477 30.4609 22.9745C28.6323 21.1827 28.2273 18.225 29.3932 15.9545C28.2273 16.2368 27.2086 16.875 26.3373 17.5745C23.1586 20.1273 21.9068 24.6313 23.4041 28.4973C23.4532 28.62 23.5023 28.7427 23.5023 28.9023C23.5023 29.1723 23.3182 29.4177 23.0727 29.5159C22.7904 29.6386 22.4959 29.565 22.2627 29.3686C22.1891 29.3073 22.14 29.2459 22.0909 29.16C20.7041 27.405 20.4832 24.8891 21.4159 22.8763C19.3664 24.5454 18.2495 27.3682 18.4091 30.0313C18.4827 30.645 18.5564 31.2586 18.765 31.8723C18.9368 32.6086 19.2682 33.345 19.6364 33.9954C20.9618 36.1186 23.2568 37.6404 25.7236 37.9473C28.35 38.2786 31.1604 37.8 33.1732 35.9836C35.4191 33.9463 36.2045 30.6818 35.0509 27.8836L34.8914 27.5645C34.6336 27 33.9464 26.0182 33.9464 26.0182ZM30.0682 33.75C29.7245 34.0445 29.16 34.3636 28.7182 34.4863C27.3436 34.9773 25.9691 34.29 25.1591 33.48C26.6195 33.1363 27.4909 32.0563 27.7486 30.9641C27.9573 29.9823 27.5645 29.1723 27.405 28.2273C27.2577 27.3191 27.2823 26.5459 27.6136 25.6991C27.8468 26.1654 28.0923 26.6318 28.3868 27C29.3318 28.2273 30.8168 28.7673 31.1359 30.4363C31.185 30.6082 31.2095 30.78 31.2095 30.9641C31.2464 31.9704 30.8045 33.075 30.0682 33.75Z" fill="url(#paint0_linear_2702_2406)"/>
<defs>
<linearGradient id="paint0_linear_2702_2406" x1="18.394" y1="26.9997" x2="35.579" y2="26.9997" gradientUnits="userSpaceOnUse">
<stop stop-color="#F9D423"/>
<stop offset="1" stop-color="#FF4E50"/>
</linearGradient>
</defs>
</svg>
