<svg width="32" height="33" viewBox="0 0 32 33" fill="none" xmlns="http://www.w3.org/2000/svg">
<path d="M7.99999 9.83337H14.6667C15.0203 9.83337 15.3594 9.97385 15.6095 10.2239C15.8595 10.4739 16 10.8131 16 11.1667C16 11.5203 15.8595 11.8595 15.6095 12.1095C15.3594 12.3596 15.0203 12.5 14.6667 12.5H7.99999C7.64637 12.5 7.30723 12.3596 7.05718 12.1095C6.80713 11.8595 6.66666 11.5203 6.66666 11.1667C6.66666 10.8131 6.80713 10.4739 7.05718 10.2239C7.30723 9.97385 7.64637 9.83337 7.99999 9.83337ZM17.3333 20.5H24C24.3536 20.5 24.6927 20.6405 24.9428 20.8906C25.1928 21.1406 25.3333 21.4798 25.3333 21.8334C25.3333 22.187 25.1928 22.5261 24.9428 22.7762C24.6927 23.0262 24.3536 23.1667 24 23.1667H17.3333C16.9797 23.1667 16.6406 23.0262 16.3905 22.7762C16.1405 22.5261 16 22.187 16 21.8334C16 21.4798 16.1405 21.1406 16.3905 20.8906C16.6406 20.6405 16.9797 20.5 17.3333 20.5ZM7.99999 15.1667H24C24.3536 15.1667 24.6927 15.3072 24.9428 15.5572C25.1928 15.8073 25.3333 16.1464 25.3333 16.5C25.3333 16.8537 25.1928 17.1928 24.9428 17.4428C24.6927 17.6929 24.3536 17.8334 24 17.8334H7.99999C7.64637 17.8334 7.30723 17.6929 7.05718 17.4428C6.80713 17.1928 6.66666 16.8537 6.66666 16.5C6.66666 16.1464 6.80713 15.8073 7.05718 15.5572C7.30723 15.3072 7.64637 15.1667 7.99999 15.1667Z" fill="white"/>
</svg>
