<svg width="32" height="32" viewBox="0 0 32 32" fill="none" xmlns="http://www.w3.org/2000/svg">
<path d="M21.658 17.1729L20.9339 16.4828L21.6589 17.1719L21.658 17.1729ZM27.708 22.3876L28.4321 23.0777L27.707 22.3885L27.708 22.3876ZM7.00296 7.7976C6.99751 7.66636 6.96627 7.53748 6.91101 7.41831C6.85576 7.29915 6.77757 7.19203 6.68092 7.10308C6.58426 7.01413 6.47104 6.94509 6.3477 6.8999C6.22437 6.85471 6.09334 6.83426 5.9621 6.83971C5.83086 6.84515 5.70198 6.8764 5.58281 6.93165C5.46365 6.98691 5.35653 7.0651 5.26758 7.16175C5.17863 7.2584 5.10959 7.37163 5.0644 7.49496C5.01921 7.6183 4.99876 7.74932 5.00421 7.88057L7.00202 7.79854L7.00296 7.7976ZM8.16733 2.89782C8.07676 2.99297 8.00582 3.10503 7.95856 3.22759C7.9113 3.35016 7.88864 3.48083 7.89188 3.61215C7.89512 3.74347 7.92419 3.87287 7.97744 3.99296C8.03069 4.11304 8.10707 4.22147 8.20221 4.31203C8.29736 4.4026 8.40942 4.47354 8.53199 4.5208C8.65455 4.56807 8.78522 4.59072 8.91654 4.58748C9.04787 4.58425 9.17726 4.55517 9.29735 4.50192C9.41744 4.44868 9.52586 4.3723 9.61643 4.27715L8.16733 2.89782ZM15.4156 23.9074C15.5272 23.9806 15.6523 24.0307 15.7836 24.0548C15.9148 24.0789 16.0496 24.0765 16.1799 24.0477C16.3102 24.0189 16.4334 23.9643 16.5423 23.8871C16.6512 23.81 16.7435 23.7118 16.8139 23.5984C16.8842 23.485 16.9312 23.3587 16.952 23.2269C16.9727 23.0951 16.9669 22.9604 16.9348 22.8309C16.9028 22.7013 16.8451 22.5795 16.7652 22.4726C16.6853 22.3657 16.5848 22.2759 16.4697 22.2084L15.4156 23.9074ZM21.0084 24.045C20.8795 24.0195 20.7469 24.0197 20.618 24.0454C20.4892 24.0712 20.3667 24.1221 20.2575 24.1952C20.1483 24.2683 20.0546 24.3621 19.9817 24.4715C19.9089 24.5808 19.8582 24.7034 19.8327 24.8323C19.8072 24.9612 19.8073 25.0938 19.8331 25.2226C19.8588 25.3515 19.9097 25.474 19.9828 25.5832C20.0559 25.6923 20.1498 25.786 20.2591 25.8589C20.3685 25.9318 20.4911 25.9824 20.62 26.008L21.0084 24.045ZM21.8041 18.4711L22.383 17.8621L20.9339 16.4828L20.355 17.0918L21.8041 18.4711ZM24.2073 17.584L26.5898 18.9369L27.576 17.1965L25.1945 15.8445L24.2073 17.584ZM26.983 21.6984L25.1756 23.6L26.6247 24.9775L28.4311 23.0768L26.9811 21.6984L26.983 21.6984ZM12.6306 19.0236C7.83923 13.9721 7.07933 9.6785 7.00296 7.7976L5.00421 7.88057C5.10037 10.2168 6.03658 14.979 11.1796 20.3992L12.6306 19.0236ZM14.4747 10.7439L14.8396 10.3602L13.3895 8.98177L13.0237 9.36643L14.4747 10.7439ZM15.1733 5.56503L13.6158 3.34377L11.9772 4.49211L13.5357 6.71243L15.1733 5.56503ZM13.7497 10.0547L13.0237 9.36643L13.0087 9.38152L12.9917 9.40226C12.9423 9.45828 12.8976 9.51819 12.8578 9.58139C12.774 9.71224 12.7051 9.85201 12.6523 9.99812C12.4973 10.4467 12.4546 10.9264 12.5278 11.3954C12.6815 12.5352 13.4093 14.0513 15.3101 16.0557L16.7629 14.6782C14.9989 12.8199 14.5841 11.6773 14.5105 11.1285C14.4738 10.8636 14.5162 10.7269 14.5303 10.6845C14.5388 10.6628 14.5445 10.6571 14.5369 10.6685C14.5255 10.6856 14.5126 10.7017 14.4983 10.7165L14.487 10.7297L14.4757 10.741C14.4747 10.742 14.4738 10.7429 13.7488 10.0537L13.7497 10.0547ZM15.3101 16.0557C17.206 18.0535 18.6589 18.8426 19.7837 19.0114C20.3607 19.0981 20.8274 19.018 21.1819 18.8747C21.3784 18.7953 21.5611 18.6852 21.723 18.5484C21.7484 18.5261 21.7729 18.5028 21.7966 18.4787L21.8022 18.473C21.8032 18.4721 21.8041 18.4711 21.0791 17.7819C20.355 17.0918 20.355 17.0918 20.3569 17.0899L20.3616 17.0852C20.3836 17.0631 20.4069 17.0423 20.4314 17.023C20.4446 17.0136 20.4455 17.0145 20.4323 17.0202C20.3186 17.0554 20.1976 17.0599 20.0816 17.0334C19.6008 16.9617 18.5316 16.5431 16.762 14.6773L15.3101 16.0557ZM13.6158 3.34377C12.3232 1.49869 9.72956 1.2545 8.16733 2.89782L9.61737 4.27621C10.2792 3.57853 11.3861 3.6483 11.9772 4.49211L13.6158 3.34377ZM25.1756 23.6C24.8221 23.9724 24.4581 24.1666 24.1149 24.2062L24.3346 26.1927C25.2878 26.0881 26.059 25.5714 26.6247 24.9775L25.1756 23.6ZM14.8396 10.3602C16.0737 9.0619 16.2001 7.03109 15.1733 5.56503L13.5357 6.71243C14.0297 7.41765 13.9515 8.38968 13.3895 8.98177L14.8396 10.3602ZM26.5898 18.9369C27.5477 19.4799 27.7608 20.881 26.982 21.6993L28.4321 23.0777C30.0942 21.3288 29.6794 18.3891 27.576 17.1965L26.5898 18.9369ZM22.3839 17.8611C22.8704 17.3483 23.6049 17.2417 24.2073 17.584L25.1945 15.8445C24.516 15.4567 23.7256 15.3079 22.9528 15.4239C22.1799 15.5398 21.4687 15.9129 20.9339 16.4828L22.3839 17.8611ZM16.4725 22.2075C15.2516 21.4485 13.9552 20.4199 12.6306 19.0236L11.1796 20.3992C12.6174 21.9124 14.0429 23.0551 15.4156 23.9074L16.4706 22.2075L16.4725 22.2075ZM24.114 24.2053C23.0767 24.3096 22.0295 24.2555 21.0084 24.045L20.619 26.007C21.8407 26.2567 23.0932 26.319 24.3337 26.1918L24.114 24.2053Z" fill="#8AA6AA"/>
</svg>
